HIERARCHY
ROOT Hips
{
	OFFSET	0.00	0.00	0.00
	CHANNELS 6 Xposition Yposition Zposition Zrotation Xrotation Yrotation
	JOINT LeftUpLeg
	{
		OFFSET	 0.126116	-0.014019	-0.065224
		CHANNELS 3 Zrotation Xrotation Yrotation
		JOINT LeftLeg
		{
			OFFSET	 0.000000	 0.000000	 0.569914
			CHANNELS 3 Zrotation Xrotation Yrotation
			JOINT LeftFoot
			{
				OFFSET	 0.000000	 0.000000	 0.544423
				CHANNELS 3 Zrotation Xrotation Yrotation
				JOINT LeftToeBase
				{
					OFFSET	 0.000000	 0.000000	 0.207117
					CHANNELS 3 Zrotation Xrotation Yrotation
					End Site
					{
						OFFSET	 0.000000	 0.000000	 0.207117
					}
				}
			}
		}
	}
	JOINT RightUpLeg
	{
		OFFSET	-0.124023	-0.008373	-0.065224
		CHANNELS 3 Zrotation Xrotation Yrotation
		JOINT RightLeg
		{
			OFFSET	 0.000000	 0.000000	 0.570047
			CHANNELS 3 Zrotation Xrotation Yrotation
			JOINT RightFoot
			{
				OFFSET	 0.000000	 0.000000	 0.544354
				CHANNELS 3 Zrotation Xrotation Yrotation
				JOINT RightToeBase
				{
					OFFSET	 0.000000	 0.000000	 0.207540
					CHANNELS 3 Zrotation Xrotation Yrotation
					End Site
					{
						OFFSET	 0.000000	 0.000000	 0.207540
					}
				}
			}
		}
	}
	JOINT Spine
	{
		OFFSET	 0.000184	-0.007763	 0.117403
		CHANNELS 3 Zrotation Xrotation Yrotation
		JOINT Spine1
		{
			OFFSET	 0.000000	 0.000000	 0.137269
			CHANNELS 3 Zrotation Xrotation Yrotation
			JOINT Spine2
			{
				OFFSET	 0.000000	 0.000000	 0.156879
				CHANNELS 3 Zrotation Xrotation Yrotation
				JOINT LeftShoulder
				{
					OFFSET	 0.080501	-0.002496	 0.160144
					CHANNELS 3 Zrotation Xrotation Yrotation
					JOINT LeftArm
					{
						OFFSET	 0.000000	 0.000000	 0.164363
						CHANNELS 3 Zrotation Xrotation Yrotation
						JOINT LeftForeArm
						{
							OFFSET	 0.000000	 0.000000	 0.364576
							CHANNELS 3 Zrotation Xrotation Yrotation
							JOINT LeftHand
							{
								OFFSET	 0.000000	 0.000000	 0.360812
								CHANNELS 3 Zrotation Xrotation Yrotation
								JOINT LeftHandIndex1
								{
									OFFSET	 0.000000	 0.000000	 0.086006
									CHANNELS 3 Zrotation Xrotation Yrotation
									JOINT LeftHandIndex2
									{
										OFFSET	 0.000000	 0.000000	 0.047236
										CHANNELS 3 Zrotation Xrotation Yrotation
										JOINT LeftHandIndex3
										{
											OFFSET	-0.004284	-0.000551	 0.038166
											CHANNELS 3 Zrotation Xrotation Yrotation
											End Site
											{
												OFFSET	-0.004284	-0.000551	 0.038166
											}
										}
									}
								}
							}
						}
					}
				}
				JOINT Neck
				{
					OFFSET	 0.000000	 0.000000	 0.176489
					CHANNELS 3 Zrotation Xrotation Yrotation
					JOINT Head
					{
						OFFSET	 0.000000	-0.001747	 0.077940
						CHANNELS 3 Zrotation Xrotation Yrotation
						End Site
						{
							OFFSET	 0.000000	-0.001747	 0.077940
						}
					}
				}
				JOINT RightShoulder
				{
					OFFSET	-0.080363	 0.000306	 0.159706
					CHANNELS 3 Zrotation Xrotation Yrotation
					JOINT RightArm
					{
						OFFSET	 0.000000	 0.000000	 0.164196
						CHANNELS 3 Zrotation Xrotation Yrotation
						JOINT RightForeArm
						{
							OFFSET	 0.000000	 0.000000	 0.365611
							CHANNELS 3 Zrotation Xrotation Yrotation
							JOINT RightHand
							{
								OFFSET	 0.000000	 0.000000	 0.360648
								CHANNELS 3 Zrotation Xrotation Yrotation
								JOINT RightHandIndex1
								{
									OFFSET	 0.000000	 0.000000	 0.069977
									CHANNELS 3 Zrotation Xrotation Yrotation
									JOINT RightHandIndex2
									{
										OFFSET	 0.000000	 0.000000	 0.052305
										CHANNELS 3 Zrotation Xrotation Yrotation
										JOINT RightHandIndex3
										{
											OFFSET	 0.009002	-0.000782	 0.042196
											CHANNELS 3 Zrotation Xrotation Yrotation
											End Site
											{
												OFFSET	 0.009002	-0.000782	 0.042196
											}
										}
									}
								}
							}
						}
					}
				}
			}
		}
	}
}
MOTION
Frames:    10
Frame Time: 0.03333334
-0.336273	-5.302351	 0.869079	-15.386560	 0.771480	 0.547018	 2.091235	-33.610530	 172.338700	-6.201072	-68.447310	-6.773863	 177.187400	 86.754000	 179.905900	-2.325089	 37.399410	-0.207999	-0.295873	-35.220690	-177.420200	 1.803042	-73.135680	 4.337366	-177.989600	 85.384670	 179.588200	 2.404123	 21.876590	-0.135589	 0.320041	 14.276270	 1.232779	 1.043283	 7.656493	-1.989458	 1.463861	 4.731656	 0.036420	-138.497500	 89.548890	-129.917900	 49.482220	 61.177410	-77.560220	-13.178910	-2.255288	-20.062050	-3.365786	-39.228240	-6.923339	-3.812334	 37.924440	-2.927599	-2.450526	 36.184240	 0.754587	-1.378229	 35.397820	-2.634230	 1.553540	 2.540884	-3.141498	 0.945881	 7.887876	 2.775840	 93.950960	 85.941700	 171.490800	-54.132480	 70.449140	 73.386300	-6.423308	-12.379290	 21.169250	-19.770470	-39.788480	 12.439620	 6.437017	 35.671460	-0.771858	 2.830251	 35.756010	-7.813440	-2.350882	 35.473990	 5.254307
-0.330545	-5.298622	 0.892754	-17.134490	 3.862035	 0.134313	 2.683393	-35.077570	 172.847600	-4.561616	-65.020770	-4.521301	 175.158300	 88.144070	-177.474100	-2.350557	 34.400550	-0.134537	 0.773189	-36.601990	-177.439400	 0.977885	-68.643730	 4.149972	-176.262300	 86.507390	 178.155700	 2.406430	 20.100530	-0.171107	 0.212089	 14.301290	 1.107706	 1.070565	 7.227962	-1.888812	 1.771069	 4.308674	 0.050617	-123.132000	 89.386110	-145.310000	 45.854120	 61.035490	-75.267880	-13.247130	-2.361987	-18.521290	-2.586911	-38.342580	-6.828713	-3.812334	 37.924440	-2.927599	-2.450526	 36.184240	 0.754587	-1.378229	 35.397820	-2.634230	 1.893816	 2.145207	-2.994654	 1.250783	 7.499201	 3.874044	 94.330430	 86.038790	 170.888800	-54.023380	 71.210710	 72.805350	-6.472877	-11.990080	 20.070220	-20.435570	-38.892460	 12.262910	 6.437017	 35.671460	-0.771858	 2.830251	 35.756010	-7.813440	-2.350882	 35.473990	 5.254307
-0.324936	-5.296813	 0.911936	-18.924310	 6.121366	-0.500342	 3.698556	-35.616540	 173.698400	-4.193834	-62.066070	-3.270408	 164.412700	 89.393490	-166.331100	-2.364884	 32.343890	-0.086533	 1.797425	-38.093940	-176.806900	-1.146894	-66.096340	 2.767976	-171.867300	 88.124340	 173.322400	 2.407093	 19.283520	-0.187284	 0.298754	 14.781150	 1.353482	 1.250297	 7.151961	-1.701803	 2.049734	 4.022767	 0.063707	-118.678000	 89.304510	-149.785500	 42.872710	 60.803400	-74.296040	-13.559330	-2.420595	-17.144620	-1.870500	-37.202470	-6.714126	-3.812334	 37.924440	-2.927599	-2.450526	 36.184240	 0.754587	-1.378229	 35.397820	-2.634230	 2.217908	 1.869946	-2.844496	 1.490024	 7.218746	 4.679090	 94.516580	 86.095700	 170.618600	-53.668100	 72.165910	 71.722100	-6.696941	-11.503310	 18.659780	-21.390190	-37.751930	 12.038080	 6.437017	 35.671460	-0.771858	 2.830251	 35.756010	-7.813440	-2.350882	 35.473990	 5.254307
-0.322696	-5.296828	 0.924954	-19.496780	 7.611660	-0.674377	 4.391367	-35.974410	 174.055700	-3.692050	-59.860070	-2.218681	 46.601910	 89.777950	-48.063120	-2.369280	 31.636040	-0.070398	 1.650188	-38.391650	-176.587200	-2.338484	-63.804480	 1.468671	-165.703600	 88.941860	 166.634400	 2.407016	 19.401830	-0.184950	 0.071827	 15.128740	 1.285637	 1.100620	 7.349580	-1.691056	 2.104713	 4.015430	 0.065550	-118.488800	 89.334410	-150.147900	 41.080030	 61.094940	-74.933410	-13.832430	-2.609571	-15.722400	-0.545225	-35.872350	-6.579980	-3.812334	 37.924440	-2.927599	-2.450526	 36.184240	 0.754587	-1.378229	 35.397820	-2.634230	 2.208508	 1.969112	-2.692373	 1.646397	 7.086592	 4.525832	 94.679840	 86.142780	 170.382000	-52.281520	 73.376560	 69.470630	-7.119613	-10.898380	 16.843070	-22.789020	-36.423210	 11.775550	 6.437017	 35.671460	-0.771858	 2.830251	 35.756010	-7.813440	-2.350882	 35.473990	 5.254307
-0.323081	-5.297537	 0.933606	-19.096130	 8.553109	-0.694750	 4.452407	-36.298630	 174.148500	-3.056289	-58.496100	-1.564605	 16.178320	 89.431110	-17.305210	-2.369114	 31.661700	-0.070984	 1.018269	-38.503490	-176.598500	-1.837237	-62.312920	 1.400728	-158.176300	 89.310730	 159.111900	 2.406205	 20.325530	-0.166633	-0.309578	 15.220030	 1.264766	 0.788665	 7.433078	-1.947898	 2.019833	 4.053203	 0.062239	-130.131100	 89.536480	-138.688200	 40.944500	 61.192450	-76.553150	-14.355850	-2.660478	-15.580950	-0.091312	-34.360630	-6.454144	-3.812334	 37.924440	-2.927599	-2.450526	 36.184240	 0.754587	-1.378229	 35.397820	-2.634230	 1.988920	 2.025822	-2.905358	 1.715702	 7.107527	 4.244783	 94.404560	 85.930850	 170.548500	-49.636880	 74.929380	 65.783670	-7.140004	-10.440770	 15.412180	-24.208440	-34.941550	 11.506520	 6.437017	 35.671460	-0.771858	 2.830251	 35.756010	-7.813440	-2.350882	 35.473990	 5.254307
-0.325644	-5.301774	 0.939744	-18.407380	 9.155405	-0.666222	 4.251142	-36.292110	 174.097500	-2.393676	-57.553830	-1.108444	 11.064100	 89.156050	-11.934110	-2.374415	 30.745230	-0.050364	 0.768142	-38.216050	-176.857500	-0.537568	-61.371480	 2.353268	-150.855700	 89.468440	 152.340600	 2.402283	 22.875070	-0.115396	-0.648691	 15.040020	 1.302122	 0.486651	 7.370186	-2.152875	 1.906778	 3.987079	 0.059858	-168.707600	 89.713330	-100.257700	 42.773520	 60.823870	-78.888350	-14.300160	-2.719512	-16.853560	-0.101705	-32.447700	-6.323588	-3.812334	 37.924440	-2.927599	-2.450526	 36.184240	 0.754587	-1.378229	 35.397820	-2.634230	 1.744943	 1.947264	-3.080063	 1.758806	 7.069110	 3.668358	 94.098140	 85.687570	 170.749600	-46.994030	 76.219640	 61.886040	-7.045464	-10.125750	 14.524570	-25.304270	-33.101620	 11.228660	 6.437017	 35.671460	-0.771858	 2.830251	 35.756010	-7.813440	-2.350882	 35.473990	 5.254307
-0.329135	-5.308125	 0.943238	-17.796710	 9.421803	-0.794075	 4.070507	-35.940350	 174.251900	-2.124727	-56.845280	-1.001642	 9.074332	 88.985290	-9.893179	-2.374895	 30.658780	-0.048429	 0.897992	-37.724680	-176.922300	 0.340486	-60.841510	 3.210654	-161.735700	 89.202300	 163.742500	 2.398616	 24.434870	-0.083459	-0.826452	 14.701180	 1.613020	 0.320656	 7.208596	-2.205021	 1.833052	 3.832081	 0.060026	 151.845600	 89.692890	-60.907950	 45.484990	 60.102380	-81.564900	-13.995490	-2.698566	-18.574700	-0.440962	-30.314860	-6.194338	-3.812334	 37.924440	-2.927599	-2.450526	 36.184240	 0.754587	-1.378229	 35.397820	-2.634230	 1.590532	 1.855618	-3.343674	 1.774139	 6.877773	 3.430975	 93.833560	 85.502590	 170.994800	-46.134250	 76.867580	 59.798560	-6.953718	-10.005110	 14.330240	-25.785810	-31.042840	 10.971880	 6.437017	 35.671460	-0.771858	 2.830251	 35.756010	-7.813440	-2.350882	 35.473990	 5.254307
-0.332975	-5.315947	 0.944878	-16.800480	 9.516107	-0.670087	 3.767821	-35.609630	 174.186500	-1.637637	-56.325700	-0.797929	 9.871299	 89.126210	-10.578930	-2.374300	 30.766320	-0.050838	 0.549735	-37.115880	-177.097700	 0.884364	-60.398370	 3.438778	-168.653500	 88.832320	 170.838400	 2.399355	 24.150290	-0.089322	-1.018000	 14.319910	 1.515850	 0.123439	 7.190953	-2.239486	 1.734591	 3.827178	 0.056875	 141.914700	 89.675550	-51.122560	 48.213390	 59.405720	-83.947880	-12.966080	-2.805008	-19.476080	-0.055967	-27.762050	-6.044881	-3.812334	 37.924440	-2.927599	-2.450526	 36.184240	 0.754587	-1.378229	 35.397820	-2.634230	 1.437814	 1.800573	-3.486000	 1.737593	 6.927989	 3.415190	 93.858610	 85.531870	 170.991400	-47.225670	 76.845210	 60.035270	-7.631985	-10.098850	 14.359490	-26.552310	-28.540230	 10.691960	 6.437017	 35.671460	-0.771858	 2.830251	 35.756010	-7.813440	-2.350882	 35.473990	 5.254307
-0.335961	-5.322570	 0.945033	-16.034030	 9.507810	-0.538772	 3.602942	-35.219540	 174.072700	-1.111200	-56.090060	-0.478533	 13.201690	 89.397040	-13.713720	-2.375037	 30.632980	-0.047856	 0.048156	-36.541900	-177.216200	 1.268000	-60.130340	 3.419153	-171.543500	 88.595420	 173.745500	 2.399719	 24.007580	-0.092254	-1.057455	 14.020490	 1.503478	 0.056247	 7.248013	-2.278677	 1.650915	 3.902939	 0.053037	 139.290800	 89.671950	-48.562510	 50.357570	 59.092550	-85.715890	-12.201710	-2.894370	-19.617230	 0.441347	-25.445460	-5.921620	-3.812334	 37.924440	-2.927599	-2.450526	 36.184240	 0.754587	-1.378229	 35.397820	-2.634230	 1.322813	 1.754647	-3.509293	 1.679743	 7.116706	 3.161306	 93.859650	 85.564870	 171.047200	-49.410460	 76.330150	 61.968570	-8.162922	-10.167940	 14.578780	-26.839780	-26.248150	 10.477130	 6.437017	 35.671460	-0.771858	 2.830251	 35.756010	-7.813440	-2.350882	 35.473990	 5.254307
-0.339056	-5.328658	 0.944187	-15.380000	 9.399130	-0.439930	 3.525789	-34.871430	 173.998000	-0.625631	-56.050950	-0.139064	 24.104020	 89.696100	-24.401780	-2.372755	 31.041310	-0.056989	-0.320505	-36.071460	-177.288200	 1.743207	-60.040770	 3.577117	-173.208500	 88.379000	 175.513900	 2.400296	 23.771700	-0.097095	-1.001965	 13.809590	 1.659453	 0.069559	 7.333673	-2.294126	 1.577368	 4.010538	 0.049192	 129.361400	 89.612350	-38.657020	 52.428690	 58.676360	-87.007230	-11.333910	-2.891296	-19.358220	 0.802504	-22.811640	-5.799207	-3.812334	 37.924440	-2.927599	-2.450526	 36.184240	 0.754587	-1.378229	 35.397820	-2.634230	 1.232437	 1.716556	-3.603281	 1.597435	 7.358758	 2.761352	 93.749140	 85.556090	 171.274100	-51.610380	 75.640790	 64.282510	-8.338937	-10.257240	 15.028430	-26.840190	-23.634210	 10.270850	 6.437017	 35.671460	-0.771858	 2.830251	 35.756010	-7.813440	-2.350882	 35.473990	 5.254307
